<mxfile host="65bd71144e">
    <diagram id="kgpKYQtTHZ0yAKxKKP6v" name="Page-1">
        <mxGraphModel dx="1512" dy="974" grid="1" gridSize="10" guides="1" tooltips="1" connect="1" arrows="1" fold="1" page="1" pageScale="1" pageWidth="850" pageHeight="1100" math="0" shadow="0">
            <root>
                <mxCell id="0"/>
                <mxCell id="1" parent="0"/>
                <mxCell id="3nuBFxr9cyL0pnOWT2aG-1" value="S1" style="shape=umlLifeline;perimeter=lifelinePerimeter;container=1;collapsible=0;recursiveResize=0;rounded=0;shadow=0;strokeWidth=1;" parent="1" vertex="1">
                    <mxGeometry x="85" y="180" width="100" height="40" as="geometry"/>
                </mxCell>
                <mxCell id="3nuBFxr9cyL0pnOWT2aG-5" value="S2" style="shape=umlLifeline;perimeter=lifelinePerimeter;container=1;collapsible=0;recursiveResize=0;rounded=0;shadow=0;strokeWidth=1;" parent="1" vertex="1">
                    <mxGeometry x="265" y="180" width="100" height="40" as="geometry"/>
                </mxCell>
                <mxCell id="21" value="" style="edgeStyle=orthogonalEdgeStyle;rounded=1;orthogonalLoop=1;jettySize=auto;html=1;strokeColor=#f0f0f0;" parent="1" source="6" target="17" edge="1">
                    <mxGeometry relative="1" as="geometry"/>
                </mxCell>
                <mxCell id="6" value="10 bit" style="rounded=0;whiteSpace=wrap;html=1;" parent="1" vertex="1">
                    <mxGeometry x="165" y="260" width="120" height="40" as="geometry"/>
                </mxCell>
                <mxCell id="10" value="10 bit" style="rounded=0;whiteSpace=wrap;html=1;" parent="1" vertex="1">
                    <mxGeometry x="165" y="100" width="120" height="40" as="geometry"/>
                </mxCell>
                <mxCell id="12" value="" style="endArrow=classic;html=1;strokeColor=#f0f0f0;exitX=0.25;exitY=1;exitDx=0;exitDy=0;entryX=0.499;entryY=-0.002;entryDx=0;entryDy=0;entryPerimeter=0;" parent="1" target="3nuBFxr9cyL0pnOWT2aG-1" edge="1">
                    <mxGeometry width="50" height="50" relative="1" as="geometry">
                        <mxPoint x="180" y="140" as="sourcePoint"/>
                        <mxPoint x="275" y="140" as="targetPoint"/>
                    </mxGeometry>
                </mxCell>
                <mxCell id="13" value="5 bit" style="edgeLabel;html=1;align=center;verticalAlign=middle;resizable=0;points=[];" parent="12" vertex="1" connectable="0">
                    <mxGeometry x="-0.3271" relative="1" as="geometry">
                        <mxPoint as="offset"/>
                    </mxGeometry>
                </mxCell>
                <mxCell id="14" value="" style="endArrow=classic;html=1;strokeColor=#f0f0f0;exitX=0.75;exitY=1;exitDx=0;exitDy=0;entryX=0.501;entryY=-0.001;entryDx=0;entryDy=0;entryPerimeter=0;" parent="1" target="3nuBFxr9cyL0pnOWT2aG-5" edge="1">
                    <mxGeometry width="50" height="50" relative="1" as="geometry">
                        <mxPoint x="270" y="140" as="sourcePoint"/>
                        <mxPoint x="144.89999999999998" y="189.92000000000007" as="targetPoint"/>
                    </mxGeometry>
                </mxCell>
                <mxCell id="15" value="5 bit" style="edgeLabel;html=1;align=center;verticalAlign=middle;resizable=0;points=[];" parent="14" vertex="1" connectable="0">
                    <mxGeometry x="-0.3271" relative="1" as="geometry">
                        <mxPoint as="offset"/>
                    </mxGeometry>
                </mxCell>
                <mxCell id="17" value="10 bit" style="rounded=0;whiteSpace=wrap;html=1;" parent="1" vertex="1">
                    <mxGeometry x="165" y="360" width="120" height="40" as="geometry"/>
                </mxCell>
                <mxCell id="22" value="" style="endArrow=classic;html=1;strokeColor=#f0f0f0;exitX=0.501;exitY=0.998;exitDx=0;exitDy=0;entryX=1;entryY=0;entryDx=0;entryDy=0;exitPerimeter=0;" parent="1" source="3nuBFxr9cyL0pnOWT2aG-5" target="6" edge="1">
                    <mxGeometry width="50" height="50" relative="1" as="geometry">
                        <mxPoint x="280" y="150" as="sourcePoint"/>
                        <mxPoint x="325.0999999999999" y="189.96000000000004" as="targetPoint"/>
                    </mxGeometry>
                </mxCell>
                <mxCell id="23" value="5 bit" style="edgeLabel;html=1;align=center;verticalAlign=middle;resizable=0;points=[];" parent="22" vertex="1" connectable="0">
                    <mxGeometry x="-0.3271" relative="1" as="geometry">
                        <mxPoint as="offset"/>
                    </mxGeometry>
                </mxCell>
                <mxCell id="24" value="" style="endArrow=classic;html=1;strokeColor=#f0f0f0;exitX=0.501;exitY=0.998;exitDx=0;exitDy=0;entryX=0;entryY=0;entryDx=0;entryDy=0;exitPerimeter=0;" parent="1" source="3nuBFxr9cyL0pnOWT2aG-1" target="6" edge="1">
                    <mxGeometry width="50" height="50" relative="1" as="geometry">
                        <mxPoint x="190" y="150" as="sourcePoint"/>
                        <mxPoint x="144.9000000000001" y="189.92000000000002" as="targetPoint"/>
                    </mxGeometry>
                </mxCell>
                <mxCell id="25" value="5 bit" style="edgeLabel;html=1;align=center;verticalAlign=middle;resizable=0;points=[];" parent="24" vertex="1" connectable="0">
                    <mxGeometry x="-0.3271" relative="1" as="geometry">
                        <mxPoint as="offset"/>
                    </mxGeometry>
                </mxCell>
                <mxCell id="26" value="+ K" style="ellipse;whiteSpace=wrap;html=1;rounded=0;strokeColor=#f0f0f0;" parent="1" vertex="1">
                    <mxGeometry x="210" y="320" width="30" height="20" as="geometry"/>
                </mxCell>
                <mxCell id="29" value="S1" style="shape=umlLifeline;perimeter=lifelinePerimeter;container=1;collapsible=0;recursiveResize=0;rounded=0;shadow=0;strokeWidth=1;" parent="1" vertex="1">
                    <mxGeometry x="405" y="180" width="100" height="40" as="geometry"/>
                </mxCell>
                <mxCell id="30" value="S2" style="shape=umlLifeline;perimeter=lifelinePerimeter;container=1;collapsible=0;recursiveResize=0;rounded=0;shadow=0;strokeWidth=1;" parent="1" vertex="1">
                    <mxGeometry x="585" y="180" width="100" height="40" as="geometry"/>
                </mxCell>
                <mxCell id="31" value="" style="edgeStyle=orthogonalEdgeStyle;rounded=1;orthogonalLoop=1;jettySize=auto;html=1;strokeColor=#f0f0f0;" parent="1" source="32" target="38" edge="1">
                    <mxGeometry relative="1" as="geometry"/>
                </mxCell>
                <mxCell id="32" value="10 bit" style="rounded=0;whiteSpace=wrap;html=1;" parent="1" vertex="1">
                    <mxGeometry x="485" y="260" width="120" height="40" as="geometry"/>
                </mxCell>
                <mxCell id="52" value="" style="edgeStyle=orthogonalEdgeStyle;rounded=1;orthogonalLoop=1;jettySize=auto;html=1;strokeColor=#f0f0f0;" parent="1" source="33" target="51" edge="1">
                    <mxGeometry relative="1" as="geometry"/>
                </mxCell>
                <mxCell id="33" value="10 bit" style="rounded=0;whiteSpace=wrap;html=1;" parent="1" vertex="1">
                    <mxGeometry x="485" y="100" width="120" height="40" as="geometry"/>
                </mxCell>
                <mxCell id="34" value="" style="endArrow=classic;html=1;strokeColor=#f0f0f0;exitX=0.25;exitY=1;exitDx=0;exitDy=0;entryX=0.499;entryY=-0.002;entryDx=0;entryDy=0;entryPerimeter=0;" parent="1" target="29" edge="1">
                    <mxGeometry width="50" height="50" relative="1" as="geometry">
                        <mxPoint x="500" y="140" as="sourcePoint"/>
                        <mxPoint x="595" y="140" as="targetPoint"/>
                    </mxGeometry>
                </mxCell>
                <mxCell id="35" value="5 bit" style="edgeLabel;html=1;align=center;verticalAlign=middle;resizable=0;points=[];" parent="34" vertex="1" connectable="0">
                    <mxGeometry x="-0.3271" relative="1" as="geometry">
                        <mxPoint as="offset"/>
                    </mxGeometry>
                </mxCell>
                <mxCell id="36" value="" style="endArrow=classic;html=1;strokeColor=#f0f0f0;exitX=0.75;exitY=1;exitDx=0;exitDy=0;entryX=0.501;entryY=-0.001;entryDx=0;entryDy=0;entryPerimeter=0;" parent="1" target="30" edge="1">
                    <mxGeometry width="50" height="50" relative="1" as="geometry">
                        <mxPoint x="590" y="140" as="sourcePoint"/>
                        <mxPoint x="464.9" y="189.92000000000007" as="targetPoint"/>
                    </mxGeometry>
                </mxCell>
                <mxCell id="37" value="5 bit" style="edgeLabel;html=1;align=center;verticalAlign=middle;resizable=0;points=[];" parent="36" vertex="1" connectable="0">
                    <mxGeometry x="-0.3271" relative="1" as="geometry">
                        <mxPoint as="offset"/>
                    </mxGeometry>
                </mxCell>
                <mxCell id="38" value="10 bit" style="rounded=0;whiteSpace=wrap;html=1;" parent="1" vertex="1">
                    <mxGeometry x="485" y="360" width="120" height="40" as="geometry"/>
                </mxCell>
                <mxCell id="39" value="" style="endArrow=classic;html=1;strokeColor=#f0f0f0;exitX=0.501;exitY=0.998;exitDx=0;exitDy=0;entryX=1;entryY=0;entryDx=0;entryDy=0;exitPerimeter=0;" parent="1" source="30" target="32" edge="1">
                    <mxGeometry width="50" height="50" relative="1" as="geometry">
                        <mxPoint x="600" y="150" as="sourcePoint"/>
                        <mxPoint x="645.0999999999999" y="189.96000000000004" as="targetPoint"/>
                    </mxGeometry>
                </mxCell>
                <mxCell id="40" value="5 bit" style="edgeLabel;html=1;align=center;verticalAlign=middle;resizable=0;points=[];" parent="39" vertex="1" connectable="0">
                    <mxGeometry x="-0.3271" relative="1" as="geometry">
                        <mxPoint as="offset"/>
                    </mxGeometry>
                </mxCell>
                <mxCell id="41" value="" style="endArrow=classic;html=1;strokeColor=#f0f0f0;exitX=0.501;exitY=0.998;exitDx=0;exitDy=0;entryX=0;entryY=0;entryDx=0;entryDy=0;exitPerimeter=0;" parent="1" source="29" target="32" edge="1">
                    <mxGeometry width="50" height="50" relative="1" as="geometry">
                        <mxPoint x="510" y="150" as="sourcePoint"/>
                        <mxPoint x="464.9000000000001" y="189.92000000000002" as="targetPoint"/>
                    </mxGeometry>
                </mxCell>
                <mxCell id="42" value="5 bit" style="edgeLabel;html=1;align=center;verticalAlign=middle;resizable=0;points=[];" parent="41" vertex="1" connectable="0">
                    <mxGeometry x="-0.3271" relative="1" as="geometry">
                        <mxPoint as="offset"/>
                    </mxGeometry>
                </mxCell>
                <mxCell id="43" value="+ K" style="ellipse;whiteSpace=wrap;html=1;rounded=0;strokeColor=#f0f0f0;" parent="1" vertex="1">
                    <mxGeometry x="530" y="320" width="30" height="20" as="geometry"/>
                </mxCell>
                <mxCell id="44" value="P" style="text;html=1;strokeColor=none;fillColor=none;align=center;verticalAlign=middle;whiteSpace=wrap;rounded=0;" parent="1" vertex="1">
                    <mxGeometry x="205" y="80" width="40" height="20" as="geometry"/>
                </mxCell>
                <mxCell id="45" value="P'" style="text;html=1;strokeColor=none;fillColor=none;align=center;verticalAlign=middle;whiteSpace=wrap;rounded=0;" parent="1" vertex="1">
                    <mxGeometry x="525" y="80" width="40" height="20" as="geometry"/>
                </mxCell>
                <mxCell id="48" value="" style="edgeStyle=orthogonalEdgeStyle;rounded=1;orthogonalLoop=1;jettySize=auto;html=1;strokeColor=#f0f0f0;exitX=1;exitY=0.5;exitDx=0;exitDy=0;entryX=0;entryY=0.5;entryDx=0;entryDy=0;" parent="1" source="10" target="33" edge="1">
                    <mxGeometry relative="1" as="geometry">
                        <mxPoint x="355" y="120" as="sourcePoint"/>
                        <mxPoint x="440" y="150" as="targetPoint"/>
                    </mxGeometry>
                </mxCell>
                <mxCell id="49" value="&lt;font style=&quot;font-size: 24px&quot;&gt;+&lt;/font&gt;" style="ellipse;whiteSpace=wrap;html=1;rounded=0;strokeColor=#f0f0f0;" parent="1" vertex="1">
                    <mxGeometry x="365" y="100" width="40" height="40" as="geometry"/>
                </mxCell>
                <mxCell id="51" value="D0" style="rounded=0;whiteSpace=wrap;html=1;" parent="1" vertex="1">
                    <mxGeometry x="645" y="100" width="120" height="40" as="geometry"/>
                </mxCell>
                <mxCell id="55" value="" style="edgeStyle=orthogonalEdgeStyle;rounded=1;orthogonalLoop=1;jettySize=auto;html=1;strokeColor=#f0f0f0;" parent="1" target="56" edge="1">
                    <mxGeometry relative="1" as="geometry">
                        <mxPoint x="605" y="380" as="sourcePoint"/>
                    </mxGeometry>
                </mxCell>
                <mxCell id="56" value="D1" style="rounded=0;whiteSpace=wrap;html=1;" parent="1" vertex="1">
                    <mxGeometry x="645" y="360" width="120" height="40" as="geometry"/>
                </mxCell>
                <mxCell id="57" value="" style="edgeStyle=orthogonalEdgeStyle;rounded=1;orthogonalLoop=1;jettySize=auto;html=1;strokeColor=#f0f0f0;exitX=1;exitY=0.5;exitDx=0;exitDy=0;entryX=0;entryY=0.5;entryDx=0;entryDy=0;" parent="1" edge="1">
                    <mxGeometry relative="1" as="geometry">
                        <mxPoint x="285" y="379.9999999999999" as="sourcePoint"/>
                        <mxPoint x="485" y="379.9999999999999" as="targetPoint"/>
                    </mxGeometry>
                </mxCell>
                <mxCell id="58" value="&lt;font style=&quot;font-size: 24px&quot;&gt;+&lt;/font&gt;" style="ellipse;whiteSpace=wrap;html=1;rounded=0;strokeColor=#f0f0f0;" parent="1" vertex="1">
                    <mxGeometry x="365" y="360" width="40" height="40" as="geometry"/>
                </mxCell>
                <mxCell id="59" value="T1" style="text;html=1;strokeColor=none;fillColor=none;align=center;verticalAlign=middle;whiteSpace=wrap;rounded=0;" parent="1" vertex="1">
                    <mxGeometry x="205" y="400" width="40" height="20" as="geometry"/>
                </mxCell>
                <mxCell id="60" value="T1'" style="text;html=1;strokeColor=none;fillColor=none;align=center;verticalAlign=middle;whiteSpace=wrap;rounded=0;" parent="1" vertex="1">
                    <mxGeometry x="525" y="400" width="40" height="20" as="geometry"/>
                </mxCell>
                <mxCell id="65" value="S1" style="shape=umlLifeline;perimeter=lifelinePerimeter;container=1;collapsible=0;recursiveResize=0;rounded=0;shadow=0;strokeWidth=1;" parent="1" vertex="1">
                    <mxGeometry x="85" y="440" width="100" height="40" as="geometry"/>
                </mxCell>
                <mxCell id="66" value="S2" style="shape=umlLifeline;perimeter=lifelinePerimeter;container=1;collapsible=0;recursiveResize=0;rounded=0;shadow=0;strokeWidth=1;" parent="1" vertex="1">
                    <mxGeometry x="265" y="440" width="100" height="40" as="geometry"/>
                </mxCell>
                <mxCell id="67" value="" style="edgeStyle=orthogonalEdgeStyle;rounded=1;orthogonalLoop=1;jettySize=auto;html=1;strokeColor=#f0f0f0;" parent="1" source="68" target="73" edge="1">
                    <mxGeometry relative="1" as="geometry"/>
                </mxCell>
                <mxCell id="68" value="10 bit" style="rounded=0;whiteSpace=wrap;html=1;" parent="1" vertex="1">
                    <mxGeometry x="165" y="520" width="120" height="40" as="geometry"/>
                </mxCell>
                <mxCell id="69" value="" style="endArrow=classic;html=1;strokeColor=#f0f0f0;exitX=0.25;exitY=1;exitDx=0;exitDy=0;entryX=0.499;entryY=-0.002;entryDx=0;entryDy=0;entryPerimeter=0;" parent="1" target="65" edge="1">
                    <mxGeometry width="50" height="50" relative="1" as="geometry">
                        <mxPoint x="180" y="400" as="sourcePoint"/>
                        <mxPoint x="275" y="400" as="targetPoint"/>
                    </mxGeometry>
                </mxCell>
                <mxCell id="70" value="5 bit" style="edgeLabel;html=1;align=center;verticalAlign=middle;resizable=0;points=[];" parent="69" vertex="1" connectable="0">
                    <mxGeometry x="-0.3271" relative="1" as="geometry">
                        <mxPoint as="offset"/>
                    </mxGeometry>
                </mxCell>
                <mxCell id="71" value="" style="endArrow=classic;html=1;strokeColor=#f0f0f0;exitX=0.75;exitY=1;exitDx=0;exitDy=0;entryX=0.501;entryY=-0.001;entryDx=0;entryDy=0;entryPerimeter=0;" parent="1" target="66" edge="1">
                    <mxGeometry width="50" height="50" relative="1" as="geometry">
                        <mxPoint x="270" y="400" as="sourcePoint"/>
                        <mxPoint x="144.89999999999998" y="449.9200000000001" as="targetPoint"/>
                    </mxGeometry>
                </mxCell>
                <mxCell id="72" value="5 bit" style="edgeLabel;html=1;align=center;verticalAlign=middle;resizable=0;points=[];" parent="71" vertex="1" connectable="0">
                    <mxGeometry x="-0.3271" relative="1" as="geometry">
                        <mxPoint as="offset"/>
                    </mxGeometry>
                </mxCell>
                <mxCell id="73" value="10 bit" style="rounded=0;whiteSpace=wrap;html=1;" parent="1" vertex="1">
                    <mxGeometry x="165" y="620" width="120" height="40" as="geometry"/>
                </mxCell>
                <mxCell id="74" value="" style="endArrow=classic;html=1;strokeColor=#f0f0f0;exitX=0.501;exitY=0.998;exitDx=0;exitDy=0;entryX=1;entryY=0;entryDx=0;entryDy=0;exitPerimeter=0;" parent="1" source="66" target="68" edge="1">
                    <mxGeometry width="50" height="50" relative="1" as="geometry">
                        <mxPoint x="280" y="410" as="sourcePoint"/>
                        <mxPoint x="325.0999999999999" y="449.96000000000004" as="targetPoint"/>
                    </mxGeometry>
                </mxCell>
                <mxCell id="75" value="5 bit" style="edgeLabel;html=1;align=center;verticalAlign=middle;resizable=0;points=[];" parent="74" vertex="1" connectable="0">
                    <mxGeometry x="-0.3271" relative="1" as="geometry">
                        <mxPoint as="offset"/>
                    </mxGeometry>
                </mxCell>
                <mxCell id="76" value="" style="endArrow=classic;html=1;strokeColor=#f0f0f0;exitX=0.501;exitY=0.998;exitDx=0;exitDy=0;entryX=0;entryY=0;entryDx=0;entryDy=0;exitPerimeter=0;" parent="1" source="65" target="68" edge="1">
                    <mxGeometry width="50" height="50" relative="1" as="geometry">
                        <mxPoint x="190" y="410" as="sourcePoint"/>
                        <mxPoint x="144.9000000000001" y="449.9200000000001" as="targetPoint"/>
                    </mxGeometry>
                </mxCell>
                <mxCell id="77" value="5 bit" style="edgeLabel;html=1;align=center;verticalAlign=middle;resizable=0;points=[];" parent="76" vertex="1" connectable="0">
                    <mxGeometry x="-0.3271" relative="1" as="geometry">
                        <mxPoint as="offset"/>
                    </mxGeometry>
                </mxCell>
                <mxCell id="78" value="+ K" style="ellipse;whiteSpace=wrap;html=1;rounded=0;strokeColor=#f0f0f0;" parent="1" vertex="1">
                    <mxGeometry x="210" y="580" width="30" height="20" as="geometry"/>
                </mxCell>
                <mxCell id="79" value="S1" style="shape=umlLifeline;perimeter=lifelinePerimeter;container=1;collapsible=0;recursiveResize=0;rounded=0;shadow=0;strokeWidth=1;" parent="1" vertex="1">
                    <mxGeometry x="405" y="440" width="100" height="40" as="geometry"/>
                </mxCell>
                <mxCell id="80" value="S2" style="shape=umlLifeline;perimeter=lifelinePerimeter;container=1;collapsible=0;recursiveResize=0;rounded=0;shadow=0;strokeWidth=1;" parent="1" vertex="1">
                    <mxGeometry x="585" y="440" width="100" height="40" as="geometry"/>
                </mxCell>
                <mxCell id="81" value="" style="edgeStyle=orthogonalEdgeStyle;rounded=1;orthogonalLoop=1;jettySize=auto;html=1;strokeColor=#f0f0f0;" parent="1" source="82" target="87" edge="1">
                    <mxGeometry relative="1" as="geometry"/>
                </mxCell>
                <mxCell id="82" value="10 bit" style="rounded=0;whiteSpace=wrap;html=1;" parent="1" vertex="1">
                    <mxGeometry x="485" y="520" width="120" height="40" as="geometry"/>
                </mxCell>
                <mxCell id="83" value="" style="endArrow=classic;html=1;strokeColor=#f0f0f0;exitX=0.25;exitY=1;exitDx=0;exitDy=0;entryX=0.499;entryY=-0.002;entryDx=0;entryDy=0;entryPerimeter=0;" parent="1" target="79" edge="1">
                    <mxGeometry width="50" height="50" relative="1" as="geometry">
                        <mxPoint x="500" y="400" as="sourcePoint"/>
                        <mxPoint x="595" y="400" as="targetPoint"/>
                    </mxGeometry>
                </mxCell>
                <mxCell id="84" value="5 bit" style="edgeLabel;html=1;align=center;verticalAlign=middle;resizable=0;points=[];" parent="83" vertex="1" connectable="0">
                    <mxGeometry x="-0.3271" relative="1" as="geometry">
                        <mxPoint as="offset"/>
                    </mxGeometry>
                </mxCell>
                <mxCell id="85" value="" style="endArrow=classic;html=1;strokeColor=#f0f0f0;exitX=0.75;exitY=1;exitDx=0;exitDy=0;entryX=0.501;entryY=-0.001;entryDx=0;entryDy=0;entryPerimeter=0;" parent="1" target="80" edge="1">
                    <mxGeometry width="50" height="50" relative="1" as="geometry">
                        <mxPoint x="590" y="400" as="sourcePoint"/>
                        <mxPoint x="464.9" y="449.9200000000001" as="targetPoint"/>
                    </mxGeometry>
                </mxCell>
                <mxCell id="86" value="5 bit" style="edgeLabel;html=1;align=center;verticalAlign=middle;resizable=0;points=[];" parent="85" vertex="1" connectable="0">
                    <mxGeometry x="-0.3271" relative="1" as="geometry">
                        <mxPoint as="offset"/>
                    </mxGeometry>
                </mxCell>
                <mxCell id="87" value="10 bit" style="rounded=0;whiteSpace=wrap;html=1;" parent="1" vertex="1">
                    <mxGeometry x="485" y="620" width="120" height="40" as="geometry"/>
                </mxCell>
                <mxCell id="88" value="" style="endArrow=classic;html=1;strokeColor=#f0f0f0;exitX=0.501;exitY=0.998;exitDx=0;exitDy=0;entryX=1;entryY=0;entryDx=0;entryDy=0;exitPerimeter=0;" parent="1" source="80" target="82" edge="1">
                    <mxGeometry width="50" height="50" relative="1" as="geometry">
                        <mxPoint x="600" y="410" as="sourcePoint"/>
                        <mxPoint x="645.0999999999999" y="449.96000000000004" as="targetPoint"/>
                    </mxGeometry>
                </mxCell>
                <mxCell id="89" value="5 bit" style="edgeLabel;html=1;align=center;verticalAlign=middle;resizable=0;points=[];" parent="88" vertex="1" connectable="0">
                    <mxGeometry x="-0.3271" relative="1" as="geometry">
                        <mxPoint as="offset"/>
                    </mxGeometry>
                </mxCell>
                <mxCell id="90" value="" style="endArrow=classic;html=1;strokeColor=#f0f0f0;exitX=0.501;exitY=0.998;exitDx=0;exitDy=0;entryX=0;entryY=0;entryDx=0;entryDy=0;exitPerimeter=0;" parent="1" source="79" target="82" edge="1">
                    <mxGeometry width="50" height="50" relative="1" as="geometry">
                        <mxPoint x="510" y="410" as="sourcePoint"/>
                        <mxPoint x="464.9000000000001" y="449.9200000000001" as="targetPoint"/>
                    </mxGeometry>
                </mxCell>
                <mxCell id="91" value="5 bit" style="edgeLabel;html=1;align=center;verticalAlign=middle;resizable=0;points=[];" parent="90" vertex="1" connectable="0">
                    <mxGeometry x="-0.3271" relative="1" as="geometry">
                        <mxPoint as="offset"/>
                    </mxGeometry>
                </mxCell>
                <mxCell id="92" value="+ K" style="ellipse;whiteSpace=wrap;html=1;rounded=0;strokeColor=#f0f0f0;" parent="1" vertex="1">
                    <mxGeometry x="530" y="580" width="30" height="20" as="geometry"/>
                </mxCell>
                <mxCell id="93" value="" style="edgeStyle=orthogonalEdgeStyle;rounded=1;orthogonalLoop=1;jettySize=auto;html=1;strokeColor=#f0f0f0;" parent="1" target="94" edge="1">
                    <mxGeometry relative="1" as="geometry">
                        <mxPoint x="605" y="640" as="sourcePoint"/>
                    </mxGeometry>
                </mxCell>
                <mxCell id="94" value="D2" style="rounded=0;whiteSpace=wrap;html=1;" parent="1" vertex="1">
                    <mxGeometry x="645" y="620" width="120" height="40" as="geometry"/>
                </mxCell>
                <mxCell id="95" value="" style="edgeStyle=orthogonalEdgeStyle;rounded=1;orthogonalLoop=1;jettySize=auto;html=1;strokeColor=#f0f0f0;exitX=1;exitY=0.5;exitDx=0;exitDy=0;entryX=0;entryY=0.5;entryDx=0;entryDy=0;" parent="1" edge="1">
                    <mxGeometry relative="1" as="geometry">
                        <mxPoint x="285" y="639.9999999999999" as="sourcePoint"/>
                        <mxPoint x="485" y="639.9999999999999" as="targetPoint"/>
                    </mxGeometry>
                </mxCell>
                <mxCell id="96" value="&lt;font style=&quot;font-size: 24px&quot;&gt;+&lt;/font&gt;" style="ellipse;whiteSpace=wrap;html=1;rounded=0;strokeColor=#f0f0f0;" parent="1" vertex="1">
                    <mxGeometry x="365" y="620" width="40" height="40" as="geometry"/>
                </mxCell>
                <mxCell id="97" value="T2" style="text;html=1;strokeColor=none;fillColor=none;align=center;verticalAlign=middle;whiteSpace=wrap;rounded=0;" parent="1" vertex="1">
                    <mxGeometry x="205" y="660" width="40" height="20" as="geometry"/>
                </mxCell>
                <mxCell id="98" value="T2'" style="text;html=1;strokeColor=none;fillColor=none;align=center;verticalAlign=middle;whiteSpace=wrap;rounded=0;" parent="1" vertex="1">
                    <mxGeometry x="525" y="660" width="40" height="20" as="geometry"/>
                </mxCell>
                <mxCell id="99" value="S1" style="shape=umlLifeline;perimeter=lifelinePerimeter;container=1;collapsible=0;recursiveResize=0;rounded=0;shadow=0;strokeWidth=1;" parent="1" vertex="1">
                    <mxGeometry x="85" y="700" width="100" height="40" as="geometry"/>
                </mxCell>
                <mxCell id="100" value="S2" style="shape=umlLifeline;perimeter=lifelinePerimeter;container=1;collapsible=0;recursiveResize=0;rounded=0;shadow=0;strokeWidth=1;" parent="1" vertex="1">
                    <mxGeometry x="265" y="700" width="100" height="40" as="geometry"/>
                </mxCell>
                <mxCell id="101" value="" style="edgeStyle=orthogonalEdgeStyle;rounded=1;orthogonalLoop=1;jettySize=auto;html=1;strokeColor=#f0f0f0;" parent="1" source="102" target="107" edge="1">
                    <mxGeometry relative="1" as="geometry"/>
                </mxCell>
                <mxCell id="102" value="10 bit" style="rounded=0;whiteSpace=wrap;html=1;" parent="1" vertex="1">
                    <mxGeometry x="165" y="780" width="120" height="40" as="geometry"/>
                </mxCell>
                <mxCell id="103" value="" style="endArrow=classic;html=1;strokeColor=#f0f0f0;exitX=0.25;exitY=1;exitDx=0;exitDy=0;entryX=0.499;entryY=-0.002;entryDx=0;entryDy=0;entryPerimeter=0;" parent="1" target="99" edge="1">
                    <mxGeometry width="50" height="50" relative="1" as="geometry">
                        <mxPoint x="180" y="660" as="sourcePoint"/>
                        <mxPoint x="275" y="660" as="targetPoint"/>
                    </mxGeometry>
                </mxCell>
                <mxCell id="104" value="5 bit" style="edgeLabel;html=1;align=center;verticalAlign=middle;resizable=0;points=[];" parent="103" vertex="1" connectable="0">
                    <mxGeometry x="-0.3271" relative="1" as="geometry">
                        <mxPoint as="offset"/>
                    </mxGeometry>
                </mxCell>
                <mxCell id="105" value="" style="endArrow=classic;html=1;strokeColor=#f0f0f0;exitX=0.75;exitY=1;exitDx=0;exitDy=0;entryX=0.501;entryY=-0.001;entryDx=0;entryDy=0;entryPerimeter=0;" parent="1" target="100" edge="1">
                    <mxGeometry width="50" height="50" relative="1" as="geometry">
                        <mxPoint x="270" y="660" as="sourcePoint"/>
                        <mxPoint x="144.89999999999998" y="709.9200000000001" as="targetPoint"/>
                    </mxGeometry>
                </mxCell>
                <mxCell id="106" value="5 bit" style="edgeLabel;html=1;align=center;verticalAlign=middle;resizable=0;points=[];" parent="105" vertex="1" connectable="0">
                    <mxGeometry x="-0.3271" relative="1" as="geometry">
                        <mxPoint as="offset"/>
                    </mxGeometry>
                </mxCell>
                <mxCell id="107" value="10 bit" style="rounded=0;whiteSpace=wrap;html=1;" parent="1" vertex="1">
                    <mxGeometry x="165" y="880" width="120" height="40" as="geometry"/>
                </mxCell>
                <mxCell id="108" value="" style="endArrow=classic;html=1;strokeColor=#f0f0f0;exitX=0.501;exitY=0.998;exitDx=0;exitDy=0;entryX=1;entryY=0;entryDx=0;entryDy=0;exitPerimeter=0;" parent="1" source="100" target="102" edge="1">
                    <mxGeometry width="50" height="50" relative="1" as="geometry">
                        <mxPoint x="280" y="670" as="sourcePoint"/>
                        <mxPoint x="325.0999999999999" y="709.96" as="targetPoint"/>
                    </mxGeometry>
                </mxCell>
                <mxCell id="109" value="5 bit" style="edgeLabel;html=1;align=center;verticalAlign=middle;resizable=0;points=[];" parent="108" vertex="1" connectable="0">
                    <mxGeometry x="-0.3271" relative="1" as="geometry">
                        <mxPoint as="offset"/>
                    </mxGeometry>
                </mxCell>
                <mxCell id="110" value="" style="endArrow=classic;html=1;strokeColor=#f0f0f0;exitX=0.501;exitY=0.998;exitDx=0;exitDy=0;entryX=0;entryY=0;entryDx=0;entryDy=0;exitPerimeter=0;" parent="1" source="99" target="102" edge="1">
                    <mxGeometry width="50" height="50" relative="1" as="geometry">
                        <mxPoint x="190" y="670" as="sourcePoint"/>
                        <mxPoint x="144.9000000000001" y="709.9200000000001" as="targetPoint"/>
                    </mxGeometry>
                </mxCell>
                <mxCell id="111" value="5 bit" style="edgeLabel;html=1;align=center;verticalAlign=middle;resizable=0;points=[];" parent="110" vertex="1" connectable="0">
                    <mxGeometry x="-0.3271" relative="1" as="geometry">
                        <mxPoint as="offset"/>
                    </mxGeometry>
                </mxCell>
                <mxCell id="112" value="+ K" style="ellipse;whiteSpace=wrap;html=1;rounded=0;strokeColor=#f0f0f0;" parent="1" vertex="1">
                    <mxGeometry x="210" y="840" width="30" height="20" as="geometry"/>
                </mxCell>
                <mxCell id="113" value="S1" style="shape=umlLifeline;perimeter=lifelinePerimeter;container=1;collapsible=0;recursiveResize=0;rounded=0;shadow=0;strokeWidth=1;" parent="1" vertex="1">
                    <mxGeometry x="405" y="700" width="100" height="40" as="geometry"/>
                </mxCell>
                <mxCell id="114" value="S2" style="shape=umlLifeline;perimeter=lifelinePerimeter;container=1;collapsible=0;recursiveResize=0;rounded=0;shadow=0;strokeWidth=1;" parent="1" vertex="1">
                    <mxGeometry x="585" y="700" width="100" height="40" as="geometry"/>
                </mxCell>
                <mxCell id="115" value="" style="edgeStyle=orthogonalEdgeStyle;rounded=1;orthogonalLoop=1;jettySize=auto;html=1;strokeColor=#f0f0f0;" parent="1" source="116" target="121" edge="1">
                    <mxGeometry relative="1" as="geometry"/>
                </mxCell>
                <mxCell id="116" value="10 bit" style="rounded=0;whiteSpace=wrap;html=1;" parent="1" vertex="1">
                    <mxGeometry x="485" y="780" width="120" height="40" as="geometry"/>
                </mxCell>
                <mxCell id="117" value="" style="endArrow=classic;html=1;strokeColor=#f0f0f0;exitX=0.25;exitY=1;exitDx=0;exitDy=0;entryX=0.499;entryY=-0.002;entryDx=0;entryDy=0;entryPerimeter=0;" parent="1" target="113" edge="1">
                    <mxGeometry width="50" height="50" relative="1" as="geometry">
                        <mxPoint x="500" y="660" as="sourcePoint"/>
                        <mxPoint x="595" y="660" as="targetPoint"/>
                    </mxGeometry>
                </mxCell>
                <mxCell id="118" value="5 bit" style="edgeLabel;html=1;align=center;verticalAlign=middle;resizable=0;points=[];" parent="117" vertex="1" connectable="0">
                    <mxGeometry x="-0.3271" relative="1" as="geometry">
                        <mxPoint as="offset"/>
                    </mxGeometry>
                </mxCell>
                <mxCell id="119" value="" style="endArrow=classic;html=1;strokeColor=#f0f0f0;exitX=0.75;exitY=1;exitDx=0;exitDy=0;entryX=0.501;entryY=-0.001;entryDx=0;entryDy=0;entryPerimeter=0;" parent="1" target="114" edge="1">
                    <mxGeometry width="50" height="50" relative="1" as="geometry">
                        <mxPoint x="590" y="660" as="sourcePoint"/>
                        <mxPoint x="464.9" y="709.9200000000001" as="targetPoint"/>
                    </mxGeometry>
                </mxCell>
                <mxCell id="120" value="5 bit" style="edgeLabel;html=1;align=center;verticalAlign=middle;resizable=0;points=[];" parent="119" vertex="1" connectable="0">
                    <mxGeometry x="-0.3271" relative="1" as="geometry">
                        <mxPoint as="offset"/>
                    </mxGeometry>
                </mxCell>
                <mxCell id="121" value="10 bit" style="rounded=0;whiteSpace=wrap;html=1;" parent="1" vertex="1">
                    <mxGeometry x="485" y="880" width="120" height="40" as="geometry"/>
                </mxCell>
                <mxCell id="122" value="" style="endArrow=classic;html=1;strokeColor=#f0f0f0;exitX=0.501;exitY=0.998;exitDx=0;exitDy=0;entryX=1;entryY=0;entryDx=0;entryDy=0;exitPerimeter=0;" parent="1" source="114" target="116" edge="1">
                    <mxGeometry width="50" height="50" relative="1" as="geometry">
                        <mxPoint x="600" y="670" as="sourcePoint"/>
                        <mxPoint x="645.0999999999999" y="709.96" as="targetPoint"/>
                    </mxGeometry>
                </mxCell>
                <mxCell id="123" value="5 bit" style="edgeLabel;html=1;align=center;verticalAlign=middle;resizable=0;points=[];" parent="122" vertex="1" connectable="0">
                    <mxGeometry x="-0.3271" relative="1" as="geometry">
                        <mxPoint as="offset"/>
                    </mxGeometry>
                </mxCell>
                <mxCell id="124" value="" style="endArrow=classic;html=1;strokeColor=#f0f0f0;exitX=0.501;exitY=0.998;exitDx=0;exitDy=0;entryX=0;entryY=0;entryDx=0;entryDy=0;exitPerimeter=0;" parent="1" source="113" target="116" edge="1">
                    <mxGeometry width="50" height="50" relative="1" as="geometry">
                        <mxPoint x="510" y="670" as="sourcePoint"/>
                        <mxPoint x="464.9000000000001" y="709.9200000000001" as="targetPoint"/>
                    </mxGeometry>
                </mxCell>
                <mxCell id="125" value="5 bit" style="edgeLabel;html=1;align=center;verticalAlign=middle;resizable=0;points=[];" parent="124" vertex="1" connectable="0">
                    <mxGeometry x="-0.3271" relative="1" as="geometry">
                        <mxPoint as="offset"/>
                    </mxGeometry>
                </mxCell>
                <mxCell id="126" value="+ K" style="ellipse;whiteSpace=wrap;html=1;rounded=0;strokeColor=#f0f0f0;" parent="1" vertex="1">
                    <mxGeometry x="530" y="840" width="30" height="20" as="geometry"/>
                </mxCell>
                <mxCell id="127" value="" style="edgeStyle=orthogonalEdgeStyle;rounded=1;orthogonalLoop=1;jettySize=auto;html=1;strokeColor=#f0f0f0;" parent="1" target="128" edge="1">
                    <mxGeometry relative="1" as="geometry">
                        <mxPoint x="605" y="900" as="sourcePoint"/>
                    </mxGeometry>
                </mxCell>
                <mxCell id="128" value="D3" style="rounded=0;whiteSpace=wrap;html=1;" parent="1" vertex="1">
                    <mxGeometry x="645" y="880" width="120" height="40" as="geometry"/>
                </mxCell>
                <mxCell id="129" value="" style="edgeStyle=orthogonalEdgeStyle;rounded=1;orthogonalLoop=1;jettySize=auto;html=1;strokeColor=#f0f0f0;exitX=1;exitY=0.5;exitDx=0;exitDy=0;entryX=0;entryY=0.5;entryDx=0;entryDy=0;" parent="1" edge="1">
                    <mxGeometry relative="1" as="geometry">
                        <mxPoint x="285" y="899.9999999999999" as="sourcePoint"/>
                        <mxPoint x="485" y="899.9999999999999" as="targetPoint"/>
                    </mxGeometry>
                </mxCell>
                <mxCell id="130" value="&lt;font style=&quot;font-size: 24px&quot;&gt;+&lt;/font&gt;" style="ellipse;whiteSpace=wrap;html=1;rounded=0;strokeColor=#f0f0f0;" parent="1" vertex="1">
                    <mxGeometry x="365" y="880" width="40" height="40" as="geometry"/>
                </mxCell>
                <mxCell id="131" value="T3" style="text;html=1;strokeColor=none;fillColor=none;align=center;verticalAlign=middle;whiteSpace=wrap;rounded=0;" parent="1" vertex="1">
                    <mxGeometry x="205" y="920" width="40" height="20" as="geometry"/>
                </mxCell>
                <mxCell id="132" value="T3'" style="text;html=1;strokeColor=none;fillColor=none;align=center;verticalAlign=middle;whiteSpace=wrap;rounded=0;" parent="1" vertex="1">
                    <mxGeometry x="525" y="920" width="40" height="20" as="geometry"/>
                </mxCell>
                <mxCell id="133" value="S1" style="shape=umlLifeline;perimeter=lifelinePerimeter;container=1;collapsible=0;recursiveResize=0;rounded=0;shadow=0;strokeWidth=1;" parent="1" vertex="1">
                    <mxGeometry x="85" y="960" width="100" height="40" as="geometry"/>
                </mxCell>
                <mxCell id="134" value="S2" style="shape=umlLifeline;perimeter=lifelinePerimeter;container=1;collapsible=0;recursiveResize=0;rounded=0;shadow=0;strokeWidth=1;" parent="1" vertex="1">
                    <mxGeometry x="265" y="960" width="100" height="40" as="geometry"/>
                </mxCell>
                <mxCell id="135" value="" style="edgeStyle=orthogonalEdgeStyle;rounded=1;orthogonalLoop=1;jettySize=auto;html=1;strokeColor=#f0f0f0;" parent="1" source="136" target="141" edge="1">
                    <mxGeometry relative="1" as="geometry"/>
                </mxCell>
                <mxCell id="136" value="10 bit" style="rounded=0;whiteSpace=wrap;html=1;" parent="1" vertex="1">
                    <mxGeometry x="165" y="1040" width="120" height="40" as="geometry"/>
                </mxCell>
                <mxCell id="137" value="" style="endArrow=classic;html=1;strokeColor=#f0f0f0;exitX=0.25;exitY=1;exitDx=0;exitDy=0;entryX=0.499;entryY=-0.002;entryDx=0;entryDy=0;entryPerimeter=0;" parent="1" target="133" edge="1">
                    <mxGeometry width="50" height="50" relative="1" as="geometry">
                        <mxPoint x="180" y="920" as="sourcePoint"/>
                        <mxPoint x="275" y="920" as="targetPoint"/>
                    </mxGeometry>
                </mxCell>
                <mxCell id="138" value="5 bit" style="edgeLabel;html=1;align=center;verticalAlign=middle;resizable=0;points=[];" parent="137" vertex="1" connectable="0">
                    <mxGeometry x="-0.3271" relative="1" as="geometry">
                        <mxPoint as="offset"/>
                    </mxGeometry>
                </mxCell>
                <mxCell id="139" value="" style="endArrow=classic;html=1;strokeColor=#f0f0f0;exitX=0.75;exitY=1;exitDx=0;exitDy=0;entryX=0.501;entryY=-0.001;entryDx=0;entryDy=0;entryPerimeter=0;" parent="1" target="134" edge="1">
                    <mxGeometry width="50" height="50" relative="1" as="geometry">
                        <mxPoint x="270" y="920" as="sourcePoint"/>
                        <mxPoint x="144.89999999999998" y="969.9200000000001" as="targetPoint"/>
                    </mxGeometry>
                </mxCell>
                <mxCell id="140" value="5 bit" style="edgeLabel;html=1;align=center;verticalAlign=middle;resizable=0;points=[];" parent="139" vertex="1" connectable="0">
                    <mxGeometry x="-0.3271" relative="1" as="geometry">
                        <mxPoint as="offset"/>
                    </mxGeometry>
                </mxCell>
                <mxCell id="141" value="10 bit" style="rounded=0;whiteSpace=wrap;html=1;" parent="1" vertex="1">
                    <mxGeometry x="165" y="1140" width="120" height="40" as="geometry"/>
                </mxCell>
                <mxCell id="142" value="" style="endArrow=classic;html=1;strokeColor=#f0f0f0;exitX=0.501;exitY=0.998;exitDx=0;exitDy=0;entryX=1;entryY=0;entryDx=0;entryDy=0;exitPerimeter=0;" parent="1" source="134" target="136" edge="1">
                    <mxGeometry width="50" height="50" relative="1" as="geometry">
                        <mxPoint x="280" y="930" as="sourcePoint"/>
                        <mxPoint x="325.0999999999999" y="969.96" as="targetPoint"/>
                    </mxGeometry>
                </mxCell>
                <mxCell id="143" value="5 bit" style="edgeLabel;html=1;align=center;verticalAlign=middle;resizable=0;points=[];" parent="142" vertex="1" connectable="0">
                    <mxGeometry x="-0.3271" relative="1" as="geometry">
                        <mxPoint as="offset"/>
                    </mxGeometry>
                </mxCell>
                <mxCell id="144" value="" style="endArrow=classic;html=1;strokeColor=#f0f0f0;exitX=0.501;exitY=0.998;exitDx=0;exitDy=0;entryX=0;entryY=0;entryDx=0;entryDy=0;exitPerimeter=0;" parent="1" source="133" target="136" edge="1">
                    <mxGeometry width="50" height="50" relative="1" as="geometry">
                        <mxPoint x="190" y="930" as="sourcePoint"/>
                        <mxPoint x="144.9000000000001" y="969.9200000000001" as="targetPoint"/>
                    </mxGeometry>
                </mxCell>
                <mxCell id="145" value="5 bit" style="edgeLabel;html=1;align=center;verticalAlign=middle;resizable=0;points=[];" parent="144" vertex="1" connectable="0">
                    <mxGeometry x="-0.3271" relative="1" as="geometry">
                        <mxPoint as="offset"/>
                    </mxGeometry>
                </mxCell>
                <mxCell id="146" value="+ K" style="ellipse;whiteSpace=wrap;html=1;rounded=0;strokeColor=#f0f0f0;" parent="1" vertex="1">
                    <mxGeometry x="210" y="1100" width="30" height="20" as="geometry"/>
                </mxCell>
                <mxCell id="147" value="S1" style="shape=umlLifeline;perimeter=lifelinePerimeter;container=1;collapsible=0;recursiveResize=0;rounded=0;shadow=0;strokeWidth=1;" parent="1" vertex="1">
                    <mxGeometry x="405" y="960" width="100" height="40" as="geometry"/>
                </mxCell>
                <mxCell id="148" value="S2" style="shape=umlLifeline;perimeter=lifelinePerimeter;container=1;collapsible=0;recursiveResize=0;rounded=0;shadow=0;strokeWidth=1;" parent="1" vertex="1">
                    <mxGeometry x="585" y="960" width="100" height="40" as="geometry"/>
                </mxCell>
                <mxCell id="149" value="" style="edgeStyle=orthogonalEdgeStyle;rounded=1;orthogonalLoop=1;jettySize=auto;html=1;strokeColor=#f0f0f0;" parent="1" source="150" target="155" edge="1">
                    <mxGeometry relative="1" as="geometry"/>
                </mxCell>
                <mxCell id="150" value="10 bit" style="rounded=0;whiteSpace=wrap;html=1;" parent="1" vertex="1">
                    <mxGeometry x="485" y="1040" width="120" height="40" as="geometry"/>
                </mxCell>
                <mxCell id="151" value="" style="endArrow=classic;html=1;strokeColor=#f0f0f0;exitX=0.25;exitY=1;exitDx=0;exitDy=0;entryX=0.499;entryY=-0.002;entryDx=0;entryDy=0;entryPerimeter=0;" parent="1" target="147" edge="1">
                    <mxGeometry width="50" height="50" relative="1" as="geometry">
                        <mxPoint x="500" y="920" as="sourcePoint"/>
                        <mxPoint x="595" y="920" as="targetPoint"/>
                    </mxGeometry>
                </mxCell>
                <mxCell id="152" value="5 bit" style="edgeLabel;html=1;align=center;verticalAlign=middle;resizable=0;points=[];" parent="151" vertex="1" connectable="0">
                    <mxGeometry x="-0.3271" relative="1" as="geometry">
                        <mxPoint as="offset"/>
                    </mxGeometry>
                </mxCell>
                <mxCell id="153" value="" style="endArrow=classic;html=1;strokeColor=#f0f0f0;exitX=0.75;exitY=1;exitDx=0;exitDy=0;entryX=0.501;entryY=-0.001;entryDx=0;entryDy=0;entryPerimeter=0;" parent="1" target="148" edge="1">
                    <mxGeometry width="50" height="50" relative="1" as="geometry">
                        <mxPoint x="590" y="920" as="sourcePoint"/>
                        <mxPoint x="464.9" y="969.9200000000001" as="targetPoint"/>
                    </mxGeometry>
                </mxCell>
                <mxCell id="154" value="5 bit" style="edgeLabel;html=1;align=center;verticalAlign=middle;resizable=0;points=[];" parent="153" vertex="1" connectable="0">
                    <mxGeometry x="-0.3271" relative="1" as="geometry">
                        <mxPoint as="offset"/>
                    </mxGeometry>
                </mxCell>
                <mxCell id="155" value="10 bit" style="rounded=0;whiteSpace=wrap;html=1;" parent="1" vertex="1">
                    <mxGeometry x="485" y="1140" width="120" height="40" as="geometry"/>
                </mxCell>
                <mxCell id="156" value="" style="endArrow=classic;html=1;strokeColor=#f0f0f0;exitX=0.501;exitY=0.998;exitDx=0;exitDy=0;entryX=1;entryY=0;entryDx=0;entryDy=0;exitPerimeter=0;" parent="1" source="148" target="150" edge="1">
                    <mxGeometry width="50" height="50" relative="1" as="geometry">
                        <mxPoint x="600" y="930" as="sourcePoint"/>
                        <mxPoint x="645.0999999999999" y="969.96" as="targetPoint"/>
                    </mxGeometry>
                </mxCell>
                <mxCell id="157" value="5 bit" style="edgeLabel;html=1;align=center;verticalAlign=middle;resizable=0;points=[];" parent="156" vertex="1" connectable="0">
                    <mxGeometry x="-0.3271" relative="1" as="geometry">
                        <mxPoint as="offset"/>
                    </mxGeometry>
                </mxCell>
                <mxCell id="158" value="" style="endArrow=classic;html=1;strokeColor=#f0f0f0;exitX=0.501;exitY=0.998;exitDx=0;exitDy=0;entryX=0;entryY=0;entryDx=0;entryDy=0;exitPerimeter=0;" parent="1" source="147" target="150" edge="1">
                    <mxGeometry width="50" height="50" relative="1" as="geometry">
                        <mxPoint x="510" y="930" as="sourcePoint"/>
                        <mxPoint x="464.9000000000001" y="969.9200000000001" as="targetPoint"/>
                    </mxGeometry>
                </mxCell>
                <mxCell id="159" value="5 bit" style="edgeLabel;html=1;align=center;verticalAlign=middle;resizable=0;points=[];" parent="158" vertex="1" connectable="0">
                    <mxGeometry x="-0.3271" relative="1" as="geometry">
                        <mxPoint as="offset"/>
                    </mxGeometry>
                </mxCell>
                <mxCell id="160" value="+ K" style="ellipse;whiteSpace=wrap;html=1;rounded=0;strokeColor=#f0f0f0;" parent="1" vertex="1">
                    <mxGeometry x="530" y="1100" width="30" height="20" as="geometry"/>
                </mxCell>
                <mxCell id="161" value="" style="edgeStyle=orthogonalEdgeStyle;rounded=1;orthogonalLoop=1;jettySize=auto;html=1;strokeColor=#f0f0f0;" parent="1" target="162" edge="1">
                    <mxGeometry relative="1" as="geometry">
                        <mxPoint x="605" y="1160" as="sourcePoint"/>
                    </mxGeometry>
                </mxCell>
                <mxCell id="162" value="D4" style="rounded=0;whiteSpace=wrap;html=1;" parent="1" vertex="1">
                    <mxGeometry x="645" y="1140" width="120" height="40" as="geometry"/>
                </mxCell>
                <mxCell id="163" value="" style="edgeStyle=orthogonalEdgeStyle;rounded=1;orthogonalLoop=1;jettySize=auto;html=1;strokeColor=#f0f0f0;exitX=1;exitY=0.5;exitDx=0;exitDy=0;entryX=0;entryY=0.5;entryDx=0;entryDy=0;" parent="1" edge="1">
                    <mxGeometry relative="1" as="geometry">
                        <mxPoint x="285" y="1160" as="sourcePoint"/>
                        <mxPoint x="485" y="1160" as="targetPoint"/>
                    </mxGeometry>
                </mxCell>
                <mxCell id="164" value="&lt;font style=&quot;font-size: 24px&quot;&gt;+&lt;/font&gt;" style="ellipse;whiteSpace=wrap;html=1;rounded=0;strokeColor=#f0f0f0;" parent="1" vertex="1">
                    <mxGeometry x="365" y="1140" width="40" height="40" as="geometry"/>
                </mxCell>
                <mxCell id="165" value="T4" style="text;html=1;strokeColor=none;fillColor=none;align=center;verticalAlign=middle;whiteSpace=wrap;rounded=0;" parent="1" vertex="1">
                    <mxGeometry x="205" y="1180" width="40" height="20" as="geometry"/>
                </mxCell>
                <mxCell id="166" value="T4'" style="text;html=1;strokeColor=none;fillColor=none;align=center;verticalAlign=middle;whiteSpace=wrap;rounded=0;" parent="1" vertex="1">
                    <mxGeometry x="525" y="1180" width="40" height="20" as="geometry"/>
                </mxCell>
                <mxCell id="257" value="S1" style="shape=umlLifeline;perimeter=lifelinePerimeter;container=1;collapsible=0;recursiveResize=0;rounded=0;shadow=0;strokeWidth=1;" vertex="1" parent="1">
                    <mxGeometry x="85" y="1220" width="100" height="40" as="geometry"/>
                </mxCell>
                <mxCell id="258" value="S2" style="shape=umlLifeline;perimeter=lifelinePerimeter;container=1;collapsible=0;recursiveResize=0;rounded=0;shadow=0;strokeWidth=1;" vertex="1" parent="1">
                    <mxGeometry x="265" y="1220" width="100" height="40" as="geometry"/>
                </mxCell>
                <mxCell id="259" value="" style="edgeStyle=orthogonalEdgeStyle;rounded=1;orthogonalLoop=1;jettySize=auto;html=1;strokeColor=#f0f0f0;" edge="1" parent="1" source="260" target="265">
                    <mxGeometry relative="1" as="geometry"/>
                </mxCell>
                <mxCell id="260" value="10 bit" style="rounded=0;whiteSpace=wrap;html=1;" vertex="1" parent="1">
                    <mxGeometry x="165" y="1300" width="120" height="40" as="geometry"/>
                </mxCell>
                <mxCell id="261" value="" style="endArrow=classic;html=1;strokeColor=#f0f0f0;exitX=0.25;exitY=1;exitDx=0;exitDy=0;entryX=0.499;entryY=-0.002;entryDx=0;entryDy=0;entryPerimeter=0;" edge="1" parent="1" target="257">
                    <mxGeometry width="50" height="50" relative="1" as="geometry">
                        <mxPoint x="180" y="1180.0000000000002" as="sourcePoint"/>
                        <mxPoint x="275" y="1180" as="targetPoint"/>
                    </mxGeometry>
                </mxCell>
                <mxCell id="262" value="5 bit" style="edgeLabel;html=1;align=center;verticalAlign=middle;resizable=0;points=[];" vertex="1" connectable="0" parent="261">
                    <mxGeometry x="-0.3271" relative="1" as="geometry">
                        <mxPoint as="offset"/>
                    </mxGeometry>
                </mxCell>
                <mxCell id="263" value="" style="endArrow=classic;html=1;strokeColor=#f0f0f0;exitX=0.75;exitY=1;exitDx=0;exitDy=0;entryX=0.501;entryY=-0.001;entryDx=0;entryDy=0;entryPerimeter=0;" edge="1" parent="1" target="258">
                    <mxGeometry width="50" height="50" relative="1" as="geometry">
                        <mxPoint x="270" y="1180.0000000000002" as="sourcePoint"/>
                        <mxPoint x="144.89999999999998" y="1229.92" as="targetPoint"/>
                    </mxGeometry>
                </mxCell>
                <mxCell id="264" value="5 bit" style="edgeLabel;html=1;align=center;verticalAlign=middle;resizable=0;points=[];" vertex="1" connectable="0" parent="263">
                    <mxGeometry x="-0.3271" relative="1" as="geometry">
                        <mxPoint as="offset"/>
                    </mxGeometry>
                </mxCell>
                <mxCell id="265" value="10 bit" style="rounded=0;whiteSpace=wrap;html=1;" vertex="1" parent="1">
                    <mxGeometry x="165" y="1400" width="120" height="40" as="geometry"/>
                </mxCell>
                <mxCell id="266" value="" style="endArrow=classic;html=1;strokeColor=#f0f0f0;exitX=0.501;exitY=0.998;exitDx=0;exitDy=0;entryX=1;entryY=0;entryDx=0;entryDy=0;exitPerimeter=0;" edge="1" parent="1" source="258" target="260">
                    <mxGeometry width="50" height="50" relative="1" as="geometry">
                        <mxPoint x="280" y="1190" as="sourcePoint"/>
                        <mxPoint x="325.0999999999999" y="1229.96" as="targetPoint"/>
                    </mxGeometry>
                </mxCell>
                <mxCell id="267" value="5 bit" style="edgeLabel;html=1;align=center;verticalAlign=middle;resizable=0;points=[];" vertex="1" connectable="0" parent="266">
                    <mxGeometry x="-0.3271" relative="1" as="geometry">
                        <mxPoint as="offset"/>
                    </mxGeometry>
                </mxCell>
                <mxCell id="268" value="" style="endArrow=classic;html=1;strokeColor=#f0f0f0;exitX=0.501;exitY=0.998;exitDx=0;exitDy=0;entryX=0;entryY=0;entryDx=0;entryDy=0;exitPerimeter=0;" edge="1" parent="1" source="257" target="260">
                    <mxGeometry width="50" height="50" relative="1" as="geometry">
                        <mxPoint x="190" y="1190" as="sourcePoint"/>
                        <mxPoint x="144.9000000000001" y="1229.92" as="targetPoint"/>
                    </mxGeometry>
                </mxCell>
                <mxCell id="269" value="5 bit" style="edgeLabel;html=1;align=center;verticalAlign=middle;resizable=0;points=[];" vertex="1" connectable="0" parent="268">
                    <mxGeometry x="-0.3271" relative="1" as="geometry">
                        <mxPoint as="offset"/>
                    </mxGeometry>
                </mxCell>
                <mxCell id="270" value="+ K" style="ellipse;whiteSpace=wrap;html=1;rounded=0;strokeColor=#f0f0f0;" vertex="1" parent="1">
                    <mxGeometry x="210" y="1360" width="30" height="20" as="geometry"/>
                </mxCell>
                <mxCell id="271" value="S1" style="shape=umlLifeline;perimeter=lifelinePerimeter;container=1;collapsible=0;recursiveResize=0;rounded=0;shadow=0;strokeWidth=1;" vertex="1" parent="1">
                    <mxGeometry x="405" y="1220" width="100" height="40" as="geometry"/>
                </mxCell>
                <mxCell id="272" value="S2" style="shape=umlLifeline;perimeter=lifelinePerimeter;container=1;collapsible=0;recursiveResize=0;rounded=0;shadow=0;strokeWidth=1;" vertex="1" parent="1">
                    <mxGeometry x="585" y="1220" width="100" height="40" as="geometry"/>
                </mxCell>
                <mxCell id="273" value="" style="edgeStyle=orthogonalEdgeStyle;rounded=1;orthogonalLoop=1;jettySize=auto;html=1;strokeColor=#f0f0f0;" edge="1" parent="1" source="274" target="279">
                    <mxGeometry relative="1" as="geometry"/>
                </mxCell>
                <mxCell id="274" value="10 bit" style="rounded=0;whiteSpace=wrap;html=1;" vertex="1" parent="1">
                    <mxGeometry x="485" y="1300" width="120" height="40" as="geometry"/>
                </mxCell>
                <mxCell id="275" value="" style="endArrow=classic;html=1;strokeColor=#f0f0f0;exitX=0.25;exitY=1;exitDx=0;exitDy=0;entryX=0.499;entryY=-0.002;entryDx=0;entryDy=0;entryPerimeter=0;" edge="1" parent="1" target="271">
                    <mxGeometry width="50" height="50" relative="1" as="geometry">
                        <mxPoint x="500" y="1180.0000000000002" as="sourcePoint"/>
                        <mxPoint x="595" y="1180" as="targetPoint"/>
                    </mxGeometry>
                </mxCell>
                <mxCell id="276" value="5 bit" style="edgeLabel;html=1;align=center;verticalAlign=middle;resizable=0;points=[];" vertex="1" connectable="0" parent="275">
                    <mxGeometry x="-0.3271" relative="1" as="geometry">
                        <mxPoint as="offset"/>
                    </mxGeometry>
                </mxCell>
                <mxCell id="277" value="" style="endArrow=classic;html=1;strokeColor=#f0f0f0;exitX=0.75;exitY=1;exitDx=0;exitDy=0;entryX=0.501;entryY=-0.001;entryDx=0;entryDy=0;entryPerimeter=0;" edge="1" parent="1" target="272">
                    <mxGeometry width="50" height="50" relative="1" as="geometry">
                        <mxPoint x="590" y="1180.0000000000002" as="sourcePoint"/>
                        <mxPoint x="464.9" y="1229.92" as="targetPoint"/>
                    </mxGeometry>
                </mxCell>
                <mxCell id="278" value="5 bit" style="edgeLabel;html=1;align=center;verticalAlign=middle;resizable=0;points=[];" vertex="1" connectable="0" parent="277">
                    <mxGeometry x="-0.3271" relative="1" as="geometry">
                        <mxPoint as="offset"/>
                    </mxGeometry>
                </mxCell>
                <mxCell id="279" value="10 bit" style="rounded=0;whiteSpace=wrap;html=1;" vertex="1" parent="1">
                    <mxGeometry x="485" y="1400" width="120" height="40" as="geometry"/>
                </mxCell>
                <mxCell id="280" value="" style="endArrow=classic;html=1;strokeColor=#f0f0f0;exitX=0.501;exitY=0.998;exitDx=0;exitDy=0;entryX=1;entryY=0;entryDx=0;entryDy=0;exitPerimeter=0;" edge="1" parent="1" source="272" target="274">
                    <mxGeometry width="50" height="50" relative="1" as="geometry">
                        <mxPoint x="600" y="1190" as="sourcePoint"/>
                        <mxPoint x="645.0999999999999" y="1229.96" as="targetPoint"/>
                    </mxGeometry>
                </mxCell>
                <mxCell id="281" value="5 bit" style="edgeLabel;html=1;align=center;verticalAlign=middle;resizable=0;points=[];" vertex="1" connectable="0" parent="280">
                    <mxGeometry x="-0.3271" relative="1" as="geometry">
                        <mxPoint as="offset"/>
                    </mxGeometry>
                </mxCell>
                <mxCell id="282" value="" style="endArrow=classic;html=1;strokeColor=#f0f0f0;exitX=0.501;exitY=0.998;exitDx=0;exitDy=0;entryX=0;entryY=0;entryDx=0;entryDy=0;exitPerimeter=0;" edge="1" parent="1" source="271" target="274">
                    <mxGeometry width="50" height="50" relative="1" as="geometry">
                        <mxPoint x="510" y="1190" as="sourcePoint"/>
                        <mxPoint x="464.9000000000001" y="1229.92" as="targetPoint"/>
                    </mxGeometry>
                </mxCell>
                <mxCell id="283" value="5 bit" style="edgeLabel;html=1;align=center;verticalAlign=middle;resizable=0;points=[];" vertex="1" connectable="0" parent="282">
                    <mxGeometry x="-0.3271" relative="1" as="geometry">
                        <mxPoint as="offset"/>
                    </mxGeometry>
                </mxCell>
                <mxCell id="284" value="+ K" style="ellipse;whiteSpace=wrap;html=1;rounded=0;strokeColor=#f0f0f0;" vertex="1" parent="1">
                    <mxGeometry x="530" y="1360" width="30" height="20" as="geometry"/>
                </mxCell>
                <mxCell id="285" value="" style="edgeStyle=orthogonalEdgeStyle;rounded=1;orthogonalLoop=1;jettySize=auto;html=1;strokeColor=#f0f0f0;" edge="1" parent="1" target="286">
                    <mxGeometry relative="1" as="geometry">
                        <mxPoint x="605" y="1420" as="sourcePoint"/>
                    </mxGeometry>
                </mxCell>
                <mxCell id="286" value="D5" style="rounded=0;whiteSpace=wrap;html=1;" vertex="1" parent="1">
                    <mxGeometry x="645" y="1400" width="120" height="40" as="geometry"/>
                </mxCell>
                <mxCell id="287" value="" style="edgeStyle=orthogonalEdgeStyle;rounded=1;orthogonalLoop=1;jettySize=auto;html=1;strokeColor=#f0f0f0;exitX=1;exitY=0.5;exitDx=0;exitDy=0;entryX=0;entryY=0.5;entryDx=0;entryDy=0;" edge="1" parent="1">
                    <mxGeometry relative="1" as="geometry">
                        <mxPoint x="285" y="1420" as="sourcePoint"/>
                        <mxPoint x="485" y="1420" as="targetPoint"/>
                    </mxGeometry>
                </mxCell>
                <mxCell id="288" value="&lt;font style=&quot;font-size: 24px&quot;&gt;+&lt;/font&gt;" style="ellipse;whiteSpace=wrap;html=1;rounded=0;strokeColor=#f0f0f0;" vertex="1" parent="1">
                    <mxGeometry x="365" y="1400" width="40" height="40" as="geometry"/>
                </mxCell>
                <mxCell id="289" value="C" style="text;html=1;strokeColor=none;fillColor=none;align=center;verticalAlign=middle;whiteSpace=wrap;rounded=0;" vertex="1" parent="1">
                    <mxGeometry x="205" y="1440" width="40" height="20" as="geometry"/>
                </mxCell>
                <mxCell id="290" value="C'" style="text;html=1;strokeColor=none;fillColor=none;align=center;verticalAlign=middle;whiteSpace=wrap;rounded=0;" vertex="1" parent="1">
                    <mxGeometry x="525" y="1440" width="40" height="20" as="geometry"/>
                </mxCell>
            </root>
        </mxGraphModel>
    </diagram>
</mxfile>